Coordinates
version=1
nRows=8
nColumns=63
inDegrees=yes

Units are S.I. units (second, meters, Newtons, ...)
If the header above contains a line with 'inDegrees', this indicates whether rotational values are in degrees (yes) or radians (no).

endheader
time	pelvis_tilt	pelvis_list	pelvis_rotation	pelvis_tx	pelvis_ty	pelvis_tz	hip_flexion_r	hip_adduction_r	hip_rotation_r	knee_angle_r	knee_angle_r_beta	ankle_angle_r	subtalar_angle_r	mtp_angle_r	hip_flexion_l	hip_adduction_l	hip_rotation_l	knee_angle_l	knee_angle_l_beta	ankle_angle_l	subtalar_angle_l	mtp_angle_l	L5_S1_Flex_Ext	L5_S1_Lat_Bending	L5_S1_axial_rotation	L4_L5_Flex_Ext	L4_L5_Lat_Bending	L4_L5_axial_rotation	L3_L4_Flex_Ext	L3_L4_Lat_Bending	L3_L4_axial_rotation	L2_L3_Flex_Ext	L2_L3_Lat_Bending	L2_L3_axial_rotation	L1_L2_Flex_Ext	L1_L2_Lat_Bending	L1_L2_axial_rotation	L1_T12_Flex_Ext	L1_T12_Lat_Bending	L1_T12_axial_rotation	Abs_r3	Abs_r2	Abs_r1	Abs_t1	Abs_t2	neck_flexion	neck_bending	neck_rotation	arm_flex_r	arm_add_r	arm_rot_r	elbow_flex_r	pro_sup_r	wrist_flex_r	wrist_dev_r	arm_flex_l	arm_add_l	arm_rot_l	elbow_flex_l	pro_sup_l	wrist_flex_l	wrist_dev_l
0.000000	-3.899798	-14.343369	110.978518	0.199001	0.361596	0.635027	-3.824216	-3.402858	-25.987050	3.010900	0.052550	16.702674	9.576278	0.000000	-1.225452	4.888317	-6.319405	1.594102	0.027822	17.789413	14.582700	0.000000	0.088667	-0.928625	0.007142	0.164664	-1.235072	0.007588	0.145671	-2.257860	0.007588	0.101338	-2.257860	0.006249	0.082336	-1.893653	0.005803	0.050664	-1.438441	0.005356	0.633340	-10.504797	0.039721	0.000000	0.000000	27.233456	0.825062	-21.074194	34.443338	-8.231330	10.247762	132.145020	72.918497	3.469677	11.518966	8.620497	-21.526765	50.101617	34.314306	95.297714	-19.188393	-14.159603
0.025000	-3.239456	-14.456515	112.982173	0.194435	0.362122	0.641385	-3.528568	-3.266190	-26.916158	3.421901	0.059723	17.299833	10.460763	0.000000	-0.116754	4.650843	-4.924352	2.395085	0.041802	18.055037	14.696411	0.000000	0.105997	-0.792198	-0.401614	0.196846	-1.053623	-0.426715	0.174142	-1.926150	-0.426715	0.121143	-1.926150	-0.351413	0.098428	-1.615450	-0.326312	0.060566	-1.227114	-0.301211	0.757123	-8.961500	-2.233659	0.000000	0.000000	27.253329	1.028181	-17.461513	33.193557	-9.795232	13.808000	121.842336	75.938294	1.724983	16.699111	7.510297	-20.256469	43.502226	48.848284	89.506851	-16.899760	-8.905377
0.050000	-2.653389	-14.553052	114.541460	0.190519	0.362716	0.646628	-3.213030	-3.149646	-27.713297	3.808317	0.066468	17.727484	11.230595	0.000000	0.800801	4.432155	-3.855857	3.029709	0.052878	18.247171	14.775125	0.000000	0.125590	-0.667939	-0.737479	0.233233	-0.888359	-0.783572	0.206331	-1.624028	-0.783572	0.143536	-1.624028	-0.645295	0.116623	-1.362062	-0.599202	0.071762	-1.034638	-0.553110	0.897075	-7.555864	-4.101639	0.000000	0.000000	27.289597	1.076107	-14.256891	32.253582	-10.966606	17.408612	113.001586	78.658376	0.486703	20.821188	6.887264	-18.973069	38.015322	61.016821	84.097223	-15.592062	-3.919145
0.075000	-2.138007	-14.633450	115.692140	0.187210	0.363360	0.650842	-2.882438	-3.052159	-28.377654	4.170753	0.072793	18.003181	11.887898	0.000000	1.540701	4.232184	-3.086762	3.512125	0.061298	18.373662	14.820108	0.000000	0.146924	-0.555381	-1.005847	0.272852	-0.738656	-1.068712	0.241381	-1.350352	-1.068712	0.167919	-1.350352	-0.880116	0.136434	-1.132532	-0.817250	0.083952	-0.860284	-0.754385	1.049463	-6.282575	-5.594218	0.000000	0.000000	27.339532	0.989513	-11.434980	31.588314	-11.787902	21.018158	105.511643	81.072155	-0.309235	23.992892	6.687864	-17.693977	33.554280	71.009247	79.084373	-15.147112	0.791692
0.100000	-1.689723	-14.698179	116.469974	0.184463	0.364037	0.654116	-2.541624	-2.972662	-28.908416	4.509813	0.078711	18.144478	12.434799	0.000000	2.116433	4.050862	-2.589911	3.856483	0.067308	18.442359	14.832623	0.000000	0.169476	-0.454051	-1.212110	0.314735	-0.603888	-1.287867	0.278433	-1.103981	-1.287867	0.193695	-1.103981	-1.060596	0.157376	-0.925902	-0.984839	0.096839	-0.703326	-0.909082	1.210553	-5.136320	-6.741392	0.000000	0.000000	27.400407	0.789068	-8.970430	31.162657	-12.301569	24.605196	99.261383	83.173042	-0.726900	26.321921	6.848566	-16.436606	30.032477	79.014892	74.483845	-15.446722	5.219737
0.125000	-1.304948	-14.747709	116.910723	0.182234	0.364730	0.656536	-2.195423	-2.910089	-29.304772	4.826103	0.084231	18.168929	12.873423	0.000000	2.541483	3.888121	-2.338146	4.076931	0.071156	18.461107	14.813937	0.000000	0.192725	-0.363482	-1.361663	0.357909	-0.483431	-1.446767	0.316627	-0.883771	-1.446767	0.220265	-0.883771	-1.191455	0.178964	-0.741213	-1.106351	0.110123	-0.563034	-1.021247	1.376612	-4.111785	-7.573160	0.000000	0.000000	27.469496	0.495446	-6.837895	30.941512	-12.550058	28.138286	94.139683	84.954450	-0.830363	27.915971	7.305837	-15.218368	27.363288	85.223085	70.311182	-16.372708	9.357590
0.150000	-0.980093	-14.782507	117.050147	0.180480	0.365419	0.658189	-1.848667	-2.863371	-29.565907	5.120228	0.089365	18.094089	13.205895	0.000000	2.829337	3.743892	-2.304310	4.187620	0.073088	18.437755	14.765315	0.000000	0.216146	-0.283203	-1.459899	0.401404	-0.376661	-1.551142	0.355106	-0.688581	-1.551142	0.247033	-0.688581	-1.277411	0.200713	-0.577509	-1.186168	0.123506	-0.438682	-1.094924	1.543907	-3.203654	-8.119519	0.000000	0.000000	27.544070	0.129316	-5.012025	30.889782	-12.575819	31.585987	90.035416	86.409790	-0.683694	28.882738	7.996147	-14.056674	25.460088	89.823158	66.581926	-17.806881	13.197851
0.175000	-0.711570	-14.803045	116.924008	0.179158	0.366088	0.659163	-1.506191	-2.831443	-29.691009	5.392794	0.094122	17.937513	13.434342	0.000000	2.993482	3.618106	-2.461247	4.202699	0.073351	18.380149	14.688021	0.000000	0.239217	-0.212745	-1.512211	0.444250	-0.282951	-1.606725	0.393010	-0.517269	-1.606725	0.273401	-0.517269	-1.323185	0.222137	-0.433830	-1.228672	0.136689	-0.329542	-1.134159	1.708704	-2.406616	-8.410466	0.000000	0.000000	27.621402	-0.288650	-3.467472	30.972368	-12.421302	34.916857	86.837458	87.532474	-0.350964	29.329920	8.855963	-12.968938	24.236253	93.004439	63.311623	-19.631055	16.733122
